<?xml version="1.0" encoding="UTF-8"?>
<svg width="120px" height="132px" viewBox="0 0 120 132" version="1.1" xmlns="http://www.w3.org/2000/svg" xmlns:xlink="http://www.w3.org/1999/xlink">
    <title>search-tips-lightbulb</title>
    <g id="Page-1" stroke="none" stroke-width="1" fill="none" fill-rule="evenodd">
        <g id="search-tips-lightbulb" fill-rule="nonzero">
            <g id="lightbulb" transform="translate(26.844434, 32.000000)">
                <path d="M61.7714302,49.8439478 C64.759309,44.7345814 66.4499426,38.7728734 66.3000804,32.3896778 C65.906692,15.2117164 52.021017,0.904553816 34.8664716,0.0428458272 C15.8105487,-0.912526074 0.0375459843,14.2329285 2.41974274e-15,33.0874739 C-0.00928597161,39.1147467 1.61109971,44.7579973 4.41165067,49.633204 C8.65930907,57.4073086 15.7168848,65.4062067 17.4683999,69.8739753 C19.2761134,74.5009725 19.4587581,79.8398155 19.4212925,82.4108899 C19.4119261,83.2632315 20.1003559,83.9516613 20.9526975,83.9563444 L29.5744605,83.970394 L36.5196396,83.9891268 L45.1414027,84.0031764 C45.9937443,84.0031764 46.6868572,83.3194298 46.6774909,82.4670883 C46.6493917,79.8960139 46.8554523,74.5571709 48.6865818,69.93954 C50.4474633,65.4951874 57.4863063,57.5712205 61.7714302,49.8439478" id="Fill-21" fill="#FFD747"></path>
                <path d="M25.6274633,95.1281075 C24.7517057,95.1281075 24.0398367,95.8352701 24.0398367,96.7110276 L24.0398367,96.8327907 C24.0351768,98.5515235 25.4354523,99.9611654 27.1541851,99.9611654 L39.1431658,99.9892878 C40.8618986,99.9939478 42.2668572,98.5889891 42.2715862,96.8702563 L42.2715862,96.7484932 C42.2762236,95.8727356 41.5643779,95.1608899 40.6886203,95.1562067 L25.6274633,95.1281075 Z" id="Fill-23" fill="#C7CCD6"></path>
                <path d="M20.9011823,87.3713307 C20.0254247,87.3713307 19.313579,88.0784932 19.3088958,88.9542508 L19.3088958,89.0760139 C19.3088958,90.7947467 20.7091713,92.597777 22.4279041,92.6024602 L43.8722567,92.6446271 C45.5863063,92.6492921 46.9959482,90.850945 47.0006313,89.1322122 L47.0006313,89.0151323 C47.0006313,88.1346916 46.2934688,87.4228458 45.4177112,87.4228458 L20.9011823,87.3713307 Z" id="Fill-25" fill="#C7CCD6"></path>
                <path d="M43.5629013,9.77916581 C40.8045859,10.6872934 39.6985495,11.8142045 40.2447921,13.159899 C49.1576764,18.7053575 52.4837436,30.9136114 52.4837436,31.7560827 C52.4837436,32.598554 57.9079209,32.598554 57.029995,30.4357419 C56.1015951,21.8710757 51.6125639,14.9855504 43.5629013,9.77916581 Z" id="Path-8" fill="#FFF2C2"></path>
            </g>
            <rect id="Rectangle" fill="#F1C00E" x="56.8481776" y="0" width="7.67221681" height="26.0337163" rx="3.8361084"></rect>
            <path d="M24.6960808,46.3952372 C23.9714686,48.3860927 21.7701472,49.4125858 19.7792917,48.6879737 L2.52512606,42.407971 C0.534270561,41.6833588 -0.492222495,39.4820374 0.232389651,37.4911819 C0.957001791,35.5003264 3.15832325,34.4738333 5.14917875,35.1984455 L22.4033444,41.4784481 C24.3941999,42.2030603 25.4206929,44.4043817 24.6960808,46.3952372 Z" id="Rectangle" fill="#F1C00E"></path>
            <path d="M94.9493325,46.3952372 C95.6739446,48.3860927 97.8752661,49.4125858 99.8661219,48.6879737 L117.120287,42.407971 C119.111143,41.6833588 120.137636,39.4820374 119.413024,37.4911819 C118.688411,35.5003264 116.48709,34.4738333 114.496235,35.1984455 L97.2420689,41.4784481 C95.2512134,42.2030603 94.2247203,44.4043817 94.9493325,46.3952372 Z" id="Rectangle" fill="#F1C00E"></path>
            <path d="M93.0296758,10.3209785 C94.5277693,11.8190721 94.5277693,14.2479616 93.0296758,15.7460551 L80.046135,28.7295959 C78.5480415,30.2276894 76.119152,30.2276894 74.6210585,28.7295959 C73.122965,27.2315023 73.122965,24.8026129 74.6210585,23.3045193 L87.6045993,10.3209785 C89.1026928,8.822885 91.5315823,8.822885 93.0296758,10.3209785 Z" id="Rectangle" fill="#FFE894"></path>
            <path d="M25.4462611,10.3209785 C23.9481676,11.8190721 23.9481676,14.2479616 25.4462611,15.7460551 L38.4298019,28.7295959 C39.9278954,30.2276894 42.3567849,30.2276894 43.8548784,28.7295959 C45.3529719,27.2315023 45.3529719,24.8026129 43.8548784,23.3045193 L30.8713376,10.3209785 C29.3732441,8.822885 26.9443546,8.822885 25.4462611,10.3209785 Z" id="Rectangle" fill="#FFE894"></path>
        </g>
    </g>
</svg>