<?xml version="1.0" encoding="UTF-8"?>
<svg width="193px" height="109px" viewBox="0 0 193 109" version="1.1" xmlns="http://www.w3.org/2000/svg" xmlns:xlink="http://www.w3.org/1999/xlink">
    <title>search-landing-slate</title>
    <g id="Page-1" stroke="none" stroke-width="1" fill="none" fill-rule="evenodd">
        <g id="search-landing-slate" fill-rule="nonzero">
            <g id="objects/Floor-" transform="translate(0.000000, 107.727090)" fill="#C7CCD6">
                <rect id="Rectangle" x="0" y="0" width="192.5" height="1"></rect>
            </g>
            <g id="Chair" transform="translate(23.000000, 48.727090)" fill="#7E8CAA">
                <polygon id="Combined-Shape" points="25.0006678 59.0102224 23.1999994 59.0102224 23.199 29.343 1.96 29.343 1.96078431 59 0 59 0 0 1.96078431 0 1.96 25.536 25 25.5367074"></polygon>
            </g>
            <g id="Group" transform="translate(154.613602, 38.753523)">
                <g id="tree" transform="translate(0.000000, 0.000000)">
                    <g id="Group" transform="translate(1.657991, 0.000000)">
                        <path d="M18.8019581,6.06927244 C18.8019581,2.71852828 15.9947213,0 12.5346387,0 C9.07455615,0 6.26731936,2.71852828 6.26731936,6.06927244 L6.26731936,9.86888984 L14.3038507,17.6767559 L16.5692255,18.0497633 L17.8749171,18.1445957 C18.1752261,18.1888508 18.4885921,18.2141394 18.8019581,18.2141394 C22.2620406,18.2141394 25.0692774,15.4956112 25.0692774,12.144867 C25.0692774,8.78780072 22.2620406,6.06927244 18.8019581,6.06927244 Z" id="Path" fill="#FFE894"></path>
                        <path d="M12.5346387,12.1385448 C12.5346387,8.78780072 9.72740192,6.06927244 6.26731936,6.06927244 C2.8072368,6.06927244 0,8.78780072 0,12.1385448 C0,15.489289 2.8072368,18.2078173 6.26731936,18.2078173 L18.8019581,18.2078173 C15.3418755,18.2078173 12.5346387,15.489289 12.5346387,12.1385448 Z" id="Path" fill="#F1C00E"></path>
                    </g>
                    <g id="Pot" transform="translate(4.501427, 54.035391)" fill="#F86363">
                        <polygon id="Path-2" points="0 0 3.96826925 14.6571698 16.2330929 14.6571698 20.1805988 0"></polygon>
                    </g>
                    <g id="Leaf-1" transform="translate(13.675168, 23.503183)">
                        <path d="M4.92765328,1.42517866 C3.93413619,4.03557775 3.63817957,5.86524024 4.03978342,6.91416613 C4.44138727,7.96309202 5.80452934,8.92074955 8.12920965,9.78713869 C10.5814409,10.8322464 12.1839677,11.0586152 12.9367898,10.466245 C13.689612,9.87387489 13.5811378,8.33476082 12.6113672,5.84890278 C11.5100031,3.41061916 10.4691755,1.92143818 9.48888442,1.38135984 C8.50859328,0.841281503 6.9881829,0.855887773 4.92765328,1.42517866 Z" id="Path-4" fill="#5BBE72" transform="translate(8.648335, 5.887327) rotate(-105.000000) translate(-8.648335, -5.887327) "></path>
                        <polygon id="Rectangle" fill="#27A444" points="8.646123 6.36197891 7.99853266 5.92131183 0 16.2322572 0.647590338 16.6729243"></polygon>
                    </g>
                    <g id="Leaf-1" transform="translate(7.309691, 41.897786) scale(-1, 1) translate(-7.309691, -41.897786) translate(0.000000, 33.561323)">
                        <path d="M4.92765328,1.42517866 C3.93413619,4.03557775 3.63817957,5.86524024 4.03978342,6.91416613 C4.44138727,7.96309202 5.80452934,8.92074955 8.12920965,9.78713869 C10.5814409,10.8322464 12.1839677,11.0586152 12.9367898,10.466245 C13.689612,9.87387489 13.5811378,8.33476082 12.6113672,5.84890278 C11.5100031,3.41061916 10.4691755,1.92143818 9.48888442,1.38135984 C8.50859328,0.841281503 6.9881829,0.855887773 4.92765328,1.42517866 Z" id="Path-4" fill="#5BBE72" transform="translate(8.648335, 5.887327) rotate(-105.000000) translate(-8.648335, -5.887327) "></path>
                        <polygon id="Rectangle" fill="#27A444" points="8.646123 6.36197891 7.99853266 5.92131183 0 16.2322572 0.647590338 16.6729243"></polygon>
                    </g>
                    <g id="Stem" transform="translate(13.477509, 17.917405)" fill="#27A444">
                        <rect id="Rectangle" x="0" y="0" width="1.37380325" height="36.291273"></rect>
                    </g>
                </g>
            </g>
            <g id="Person" transform="translate(26.786166, 1.197566)">
                <g id="Head" transform="translate(14.233390, 0.000000)">
                    <rect id="Combined-Shape" fill="#FAA3A3" x="15.0309395" y="16.0108788" width="15.6657983" height="15.6657983" rx="7.83289915"></rect>
                    <path d="M22.9933369,0.0983275632 C23.3838821,0.239478256 24.5109856,1.85621051 25.9692458,2.47974125 C26.314595,2.46415785 26.6727372,2.48575347 27.0532374,2.57048795 C27.2280421,2.60941561 27.4074311,2.66834447 27.5925035,2.74407733 C28.2151347,2.79886528 28.8878127,2.96387444 29.3638191,3.67908221 L29.4272677,3.7840177 C30.3009877,4.34747565 31.3054563,5.01715462 32.5019581,5.61477608 C38.2106938,8.46614094 33.6419562,8.47041067 35.6465538,12.8151014 C37.2528897,16.2966147 34.5935184,16.4698225 33.7131189,17.3571732 C33.0865775,17.9886615 32.2731972,18.2963466 31.4045364,18.4400368 C31.134378,18.7105611 30.8599113,19.0754505 30.5947171,19.584946 C29.2824474,22.1060997 28.0247668,20.8104888 27.1288542,20.7839604 C26.5347256,20.7663679 26.032426,20.5282992 25.5935823,20.1876672 C25.6881754,21.3411507 26.2646297,22.7956282 25.3681712,23.4293921 C23.7984958,24.5390959 20.8148066,22.3114804 19.3763098,23.5562975 C17.5700861,25.1193308 19.1908758,28.3672643 17.6269458,30.1283368 C17.3360198,30.4559356 11.1066398,29.9016129 7.82819014,27.8292579 C6.51741041,27.0006953 4.29963409,26.9734721 5.23484486,25.0628063 L2.22674969,23.5562975 C2.22674969,19.7165745 -0.136288056,19.7165745 0.00619372943,17.3571732 C0.0315504334,16.9372834 0.571692744,16.4295261 1.13555304,15.9335025 L1.39569224,15.7057643 C2.12739217,15.0649219 2.77045823,14.4703484 2.22674969,14.1447746 C0.00619372943,12.8151014 0.89972076,10.2904333 2.22674969,8.99285418 C3.51602011,7.73219566 4.81215465,4.890856 6.38815074,3.92807751 C6.97772301,3.62085603 10.4938277,3.94318451 12.5717471,2.57048795 C13.4801597,1.9703806 14.3689468,0.297803503 16.4854918,0.509431271 C16.6417402,0.525054136 16.796535,0.549338129 16.951145,0.581231493 C17.3851923,0.436627972 17.8452874,0.376618253 18.255654,0.394965065 C19.5452298,0.452619862 21.751056,-0.25248281 22.9933369,0.0983275632 Z" id="Combined-Shape" fill="#850000"></path>
                </g>
                <g id="body-and-legs" transform="translate(0.000000, 28.774388)">
                    <path d="M17.1618451,9.5738452 C5.61954076,24.3797771 0.805368932,32.5361019 0.103479007,37.1108959 C-1.4328429,47.1243694 19.1185299,39.0236589 17.376367,39.3031215 C7.00441231,40.9669004 23.941232,29.2172812 30.6363079,21.0667408 C31.9596118,19.4557595 33.0825832,19.3479688 34.9626166,18.2105411 C37.0972289,16.9190921 37.1717128,15.7437757 37.2041754,13.0710772 C37.218692,11.8759017 36.9660631,7.00308649 37.0972289,5.79402291 C38.1314257,-3.7390234 25.2725186,-0.830150032 17.1618451,9.5738452 Z" id="Path-3" fill="#4989E4"></path>
                    <g id="Legs" transform="translate(0.000000, 29.877302)">
                        <path d="M0.711587766,10.538732 C1.34192866,13.8410876 4.32682046,15.7390449 9.66626316,16.232604 C15.0057059,16.7261631 20.8957826,13.3857012 27.3364933,6.21121826 C50.3273922,35.8874388 62.5820392,49.9240494 64.1004343,48.3210499 C65.6188294,46.7180504 55.1191304,30.7291908 32.6013373,0.354471095 L0.711587766,10.538732 Z" id="Path-5" fill="#5BBE72"></path>
                        <path d="M0,8.8420457 C0.571237046,13.2806819 3.25928913,15.7602264 8.06415626,16.2806791 C12.4097909,16.5318342 17.3383741,12.9344085 22.8499061,5.48840226 C31.88347,35.5148488 37.159739,49.7980652 38.6787131,48.3380515 C40.1976873,46.8780379 37.257707,30.765354 29.8587723,0 L0,8.8420457 Z" id="Path-5" fill="#8ED79F"></path>
                    </g>
                </g>
                <g id="Hand" transform="translate(26.545442, 31.712994)" fill="#FAA3A3">
                    <path d="M1.54310745,2.45540462 L0.00207931468,26.5211237 C-0.0332134932,27.0722796 0.384976197,27.5476902 0.936132127,27.582983 C1.05575511,27.590643 1.17578083,27.5767335 1.29048146,27.5419183 L30.031934,18.8180009 L30.031934,18.8180009 L29.1448764,21.5444162 C29.0765273,21.7544908 29.1914184,21.9801979 29.401493,22.0485471 C29.5457845,22.0954933 29.7042161,22.0567543 29.8105642,21.9485229 L31.090323,20.6461017 L31.090323,20.6461017 L37.487835,25.3731462 C37.6655093,25.5044275 37.9159674,25.4668187 38.0472488,25.2891444 C38.1618291,25.134073 38.1494789,24.9193308 38.017876,24.7784178 L31.184839,17.4619892 C30.4690637,16.6955776 29.405046,16.3585513 28.3785524,16.5731014 L6.11326093,21.2268265 C5.57265841,21.3398192 5.04281478,20.993173 4.92982207,20.4525704 C4.90775501,20.3469928 4.90291385,20.2385404 4.91548619,20.1314164 L7.04042918,2.02562737 L7.04042918,2.02562737 C6.05615022,0.424506583 4.92949294,-0.227431319 3.66045735,0.0698136639 C2.39101654,0.302428439 1.68523324,1.09762542 1.54310745,2.45540462 L1.54310745,2.45540462 Z" id="Path-6"></path>
                </g>
            </g>
            <g id="Table" transform="translate(70.000000, 58.937595)" fill="#9EA8BD">
                <polygon id="Combined-Shape" points="1.55972796e-15 5.25292032 1.55972796e-15 8.68870439e-16 77.4875094 8.68870439e-16 77.4875094 5.25292032 68.606 5.252 68.6066708 48.4394415 64.1969792 48.4394415 64.196 5.252 12.6365288 5.25292032 12.6365288 48.4394415 8.46883246 48.4394415 8.46883246 5.25292032"></polygon>
            </g>
            <g id="computer" transform="translate(109.609535, 0.000000)">
                <path d="M22.9487738,18.3323157 C23.4929724,18.4087979 23.8721315,18.911959 23.7956493,19.4561575 L18.606,56.3815082 L23.1117858,56.3819067 C23.6220792,56.3819067 24.042655,56.7660331 24.1001338,57.2609061 L24.1068282,57.3769491 C24.1068282,57.9264958 23.6613325,58.3719915 23.1117858,58.3719915 L23.1117858,58.3719915 L0.995042359,58.3719915 C0.445495638,58.3719915 -6.66133815e-16,57.9264958 -6.66133815e-16,57.3769491 C-6.66133815e-16,56.8274024 0.445495638,56.3819067 0.995042359,56.3819067 L0.995042359,56.3819067 L16.596,56.3815082 L21.824932,19.1791913 C21.9014141,18.6349927 22.4045752,18.2558336 22.9487738,18.3323157 Z" id="Combined-Shape" fill="#C7CCD6"></path>
                <path d="M17.414957,0 L20.1174727,0.379813815 L18.2152088,13.9168487 C18.4288633,13.8451216 18.6619999,13.8206349 18.9003591,13.8541341 L21.3345863,14.1962424 C22.1549512,14.3115372 22.7265235,15.0700393 22.6112288,15.8904042 L20.2434467,32.7380486 C20.128152,33.5584135 19.3696499,34.1299858 18.549285,34.014691 L16.1150578,33.6725827 C15.8766611,33.6390783 15.6592743,33.5512566 15.4736479,33.4233842 L12.9010102,51.7276125 L10.1984945,51.3477987 L17.414957,0 Z" id="Combined-Shape" fill="#5F6F91"></path>
            </g>
            <g id="Rectangle" transform="translate(73.500000, 56.937595)" fill="#C7CCD6">
                <rect transform="translate(11.000000, 0.750000) scale(-1, 1) rotate(-180.000000) translate(-11.000000, -0.750000) " x="0" y="0" width="22" height="1.5" rx="0.75"></rect>
            </g>
        </g>
    </g>
</svg>